<?xml version="1.0" encoding="UTF-8" standalone="no"?>
<!-- Created with Inkscape (http://www.inkscape.org/) -->

<svg
   xmlns:dc="http://purl.org/dc/elements/1.1/"
   xmlns:cc="http://creativecommons.org/ns#"
   xmlns:rdf="http://www.w3.org/1999/02/22-rdf-syntax-ns#"
   xmlns:svg="http://www.w3.org/2000/svg"
   xmlns="http://www.w3.org/2000/svg"
   xmlns:sodipodi="http://sodipodi.sourceforge.net/DTD/sodipodi-0.dtd"
   xmlns:inkscape="http://www.inkscape.org/namespaces/inkscape"
   width="22"
   height="27"
   viewBox="0 0 5.8208332 7.1437502"
   version="1.1"
   id="svg8"
   inkscape:version="0.92.3 (2405546, 2018-03-11)"
   sodipodi:docname="KrakenLogo.svg"
   inkscape:export-filename="C:\Users\Jacob\Documents\python\MD Renderer\res\Jojo.png"
   inkscape:export-xdpi="9445.3438"
   inkscape:export-ydpi="9445.3438">
  <title
     id="title4609">Jojo</title>
  <defs
     id="defs2" />
  <sodipodi:namedview
     id="base"
     pagecolor="#ffffff"
     bordercolor="#666666"
     borderopacity="1.0"
     inkscape:pageopacity="0.0"
     inkscape:pageshadow="2"
     inkscape:zoom="16"
     inkscape:cx="15.718915"
     inkscape:cy="15.696216"
     inkscape:document-units="cm"
     inkscape:current-layer="layer1"
     showgrid="true"
     units="px"
     inkscape:window-width="1366"
     inkscape:window-height="705"
     inkscape:window-x="-8"
     inkscape:window-y="-8"
     inkscape:window-maximized="1">
    <inkscape:grid
       type="xygrid"
       id="grid3713" />
  </sodipodi:namedview>
  <metadata
     id="metadata5">
    <rdf:RDF>
      <cc:Work
         rdf:about="">
        <dc:format>image/svg+xml</dc:format>
        <dc:type
           rdf:resource="http://purl.org/dc/dcmitype/StillImage" />
        <dc:title>Jojo</dc:title>
      </cc:Work>
    </rdf:RDF>
  </metadata>
  <g
     inkscape:label="Layer 1"
     inkscape:groupmode="layer"
     id="layer1"
     transform="translate(0,-289.85623)">
    <path
       style="fill:none;stroke:#000000;stroke-width:0.1;stroke-linecap:butt;stroke-linejoin:miter;stroke-miterlimit:4;stroke-dasharray:none;stroke-opacity:1"
       d="M 2.9104166,290.12082 C 1.5875,290.91457 1.5875,290.91457 1.5875,290.91457 l -0.79375004,0.79375 v 0 l 0.26458334,0.52917 0.5291667,0.26458 v -0.26458 l 0.2645833,-0.52917 0.2645833,-0.26458 0.5291667,-0.26458 H 3.175 l 0.5291666,0.26458 0.2645834,0.26458 0.2645833,0.52917 v 0.26458 l 0.5291666,-0.26458 0.2645834,-0.52917 -0.79375,-0.79375 z"
       id="path3721"
       inkscape:connector-curvature="0" />
    <path
       inkscape:connector-curvature="0"
       id="path4528"
       d="M 2.9104166,290.12082 C 1.5875,290.91457 1.5875,290.91457 1.5875,290.91457 l -0.79375004,0.79375 v 0 l 0.26458334,0.52917 0.5291667,0.26458 v -0.26458 l 0.2645833,-0.52917 0.2645833,-0.26458 0.5291667,-0.26458 H 3.175 l 0.5291666,0.26458 0.2645834,0.26458 0.2645833,0.52917 v 0.26458 l 0.5291666,-0.26458 0.2645834,-0.52917 -0.79375,-0.79375 z M 1.5875,292.50207 v 0.26458 l -0.2645833,0.79375 -0.2645834,0.26459 -0.26458333,-0.26459 v -0.26458 l -0.26458333,-0.26458 -0.26458334,0.26458 v 0.26458 l 0.26458334,0.52917 0.26458333,0.26458 H 1.3229167 L 1.5875,294.08957 1.8520833,293.5604 v -0.26458 0.26458 L 1.5875,294.35415 1.3229167,294.61874 H 1.0583333 l -0.26458333,0.26458 0.26458333,0.26458 H 1.5875 l 0.2645833,-0.26458 0.2645834,-0.52917 v -0.79375 1.5875 l -0.2645834,0.26459 0.2645834,0.26458 H 2.38125 l 0.2645833,-0.26458 v -1.5875 1.85208 l -0.5291666,0.52917 H 1.8520833 L 1.5875,295.67707 l -0.2645833,-0.26458 -0.2645834,0.26458 0.2645834,0.79375 0.5291666,0.26458 H 2.38125 l 0.5291667,-0.52916 0.5291666,0.52916 H 3.96875 L 4.4979167,296.47082 4.7625,295.67707 4.4979167,295.41249 4.2333333,295.67707 3.96875,296.20624 H 3.7041667 L 3.175,295.67707 v -1.85208 1.5875 l 0.2645833,0.26458 H 3.7041667 L 3.96875,295.41249 3.7041667,295.1479 v -1.32291 0.52916 l 0.2645833,0.52917 0.2645833,0.26458 H 4.7625 L 5.0270833,294.88332 4.7625,294.61874 H 4.4979167 L 4.2333333,294.35415 3.96875,293.5604 v -0.26458 0.26458 l 0.2645833,0.52917 0.2645834,0.26458 H 5.0270833 L 5.2916667,294.08957 5.55625,293.5604 v -0.26458 l -0.2645833,-0.26458 -0.2645834,0.26458 v 0.26458 L 4.7625,293.82499 4.4979167,293.5604 4.2333333,292.76665 v -0.26458 -0.26458 L 3.96875,291.70832 3.7041667,291.44374 3.175,291.17915 H 2.6458333 l -0.5291666,0.26459 -0.2645834,0.26458 -0.2645833,0.52917 v 0.26458 0.26458 0"
       style="fill:none;stroke:#000000;stroke-width:0.1;stroke-linecap:butt;stroke-linejoin:miter;stroke-miterlimit:4;stroke-dasharray:none;stroke-opacity:1" />
    <path
       style="fill:none;stroke:#000000;stroke-width:0.1;stroke-linecap:butt;stroke-linejoin:miter;stroke-opacity:1;stroke-miterlimit:4;stroke-dasharray:none"
       d="m 3.7041666,294.08956 v -0.52916 0 0.79375 0 0.52916"
       id="path4540"
       inkscape:connector-curvature="0" />
    <path
       style="fill:none;stroke:#000000;stroke-width:0.1;stroke-linecap:butt;stroke-linejoin:miter;stroke-opacity:1;stroke-miterlimit:4;stroke-dasharray:none"
       d="m 2.38125,293.03123 v 0.26458 l 0.2645833,0.26459 H 3.175 l 0.2645833,-0.26459 v -0.26458 z"
       id="path4544"
       inkscape:connector-curvature="0" />
    <circle
       style="fill:none;stroke-width:0.1;stroke-miterlimit:4;stroke-dasharray:none"
       id="path4582"
       cx="2.2489583"
       cy="292.36978"
       r="0.13229166" />
    <circle
       style="fill:none;stroke-width:0.1;stroke-miterlimit:4;stroke-dasharray:none"
       id="path4587"
       cx="2.2489583"
       cy="292.36978"
       r="0.13229166" />
    <circle
       r="0.13229166"
       cy="292.36978"
       cx="2.2489583"
       id="circle4589"
       style="fill:none;stroke-width:0.1;stroke-miterlimit:4;stroke-dasharray:none" />
    <circle
       style="fill:none;stroke:#000000;stroke-width:0.1;stroke-miterlimit:4;stroke-dasharray:none"
       id="path4603"
       cx="2.2489583"
       cy="292.36978"
       r="0.13229166" />
    <circle
       style="fill:none;stroke:#000000;stroke-width:0.1;stroke-miterlimit:4;stroke-dasharray:none"
       id="path4605"
       cx="3.5718749"
       cy="292.36978"
       r="0.13229166" />
  </g>
</svg>
